<mxfile host="app.diagrams.net" modified="2023-03-23T01:58:56.022Z" agent="5.0 (Windows NT 10.0; Win64; x64) AppleWebKit/537.36 (KHTML, like Gecko) Chrome/110.0.0.0 Whale/3.19.166.16 Safari/537.36" etag="yhGsTLpcrbchFzhOCSRH" version="21.0.6" type="github">
  <diagram name="페이지-1" id="Es9w4GO_iaobO_2TdLLc">
    <mxGraphModel dx="968" dy="526" grid="0" gridSize="10" guides="1" tooltips="1" connect="1" arrows="1" fold="1" page="1" pageScale="1" pageWidth="827" pageHeight="1169" background="#ffffff" math="0" shadow="0">
      <root>
        <mxCell id="0" />
        <mxCell id="1" parent="0" />
        <mxCell id="7dQRJvgrKI5619l0tNyw-1" value="" style="endArrow=none;html=1;rounded=0;" edge="1" parent="1" source="7dQRJvgrKI5619l0tNyw-5">
          <mxGeometry width="50" height="50" relative="1" as="geometry">
            <mxPoint x="330" y="180" as="sourcePoint" />
            <mxPoint x="400" y="180" as="targetPoint" />
          </mxGeometry>
        </mxCell>
        <mxCell id="7dQRJvgrKI5619l0tNyw-3" value="" style="endArrow=classic;html=1;rounded=0;exitX=0.5;exitY=1;exitDx=0;exitDy=0;" edge="1" parent="1">
          <mxGeometry width="50" height="50" relative="1" as="geometry">
            <mxPoint x="260" y="210" as="sourcePoint" />
            <mxPoint x="260" y="280" as="targetPoint" />
          </mxGeometry>
        </mxCell>
        <mxCell id="7dQRJvgrKI5619l0tNyw-4" value="&lt;div style=&quot;&quot;&gt;&lt;span style=&quot;background-color: initial;&quot;&gt;euclidean_cluster&lt;/span&gt;&lt;/div&gt;&lt;br&gt;&lt;div style=&quot;text-align: left;&quot;&gt;1. euclidean_cluster&lt;/div&gt;&lt;div style=&quot;&quot;&gt;&lt;div style=&quot;text-align: left;&quot;&gt;&lt;span style=&quot;background-color: initial;&quot;&gt;2.&amp;nbsp;voxel_grid_based_&lt;/span&gt;&lt;/div&gt;&lt;span style=&quot;background-color: initial;&quot;&gt;&lt;div style=&quot;text-align: left;&quot;&gt;&lt;span style=&quot;background-color: initial;&quot;&gt;&amp;nbsp; &amp;nbsp; euclidean_cluster&lt;/span&gt;&lt;/div&gt;&lt;/span&gt;&lt;/div&gt;" style="rounded=1;whiteSpace=wrap;html=1;align=center;" vertex="1" parent="1">
          <mxGeometry x="186.25" y="280" width="147.5" height="110" as="geometry" />
        </mxCell>
        <mxCell id="7dQRJvgrKI5619l0tNyw-5" value="msg::PointCloud2" style="ellipse;whiteSpace=wrap;html=1;" vertex="1" parent="1">
          <mxGeometry x="200" y="140" width="120" height="80" as="geometry" />
        </mxCell>
        <mxCell id="7dQRJvgrKI5619l0tNyw-6" value="" style="endArrow=classic;html=1;rounded=0;exitX=0.5;exitY=1;exitDx=0;exitDy=0;entryX=0.5;entryY=0;entryDx=0;entryDy=0;" edge="1" parent="1" target="7dQRJvgrKI5619l0tNyw-7">
          <mxGeometry width="50" height="50" relative="1" as="geometry">
            <mxPoint x="260" y="390" as="sourcePoint" />
            <mxPoint x="260" y="460" as="targetPoint" />
          </mxGeometry>
        </mxCell>
        <mxCell id="7dQRJvgrKI5619l0tNyw-7" value="msg::PointCloud2" style="ellipse;whiteSpace=wrap;html=1;" vertex="1" parent="1">
          <mxGeometry x="140" y="440" width="120" height="79" as="geometry" />
        </mxCell>
        <mxCell id="7dQRJvgrKI5619l0tNyw-13" value="tier4_pereption_msgs&lt;br&gt;::DetectedObjects&lt;br&gt;WithFeature" style="ellipse;whiteSpace=wrap;html=1;" vertex="1" parent="1">
          <mxGeometry x="260" y="440" width="120" height="79" as="geometry" />
        </mxCell>
        <mxCell id="7dQRJvgrKI5619l0tNyw-14" value="" style="endArrow=classic;html=1;rounded=0;exitX=0.5;exitY=1;exitDx=0;exitDy=0;entryX=0.5;entryY=0;entryDx=0;entryDy=0;" edge="1" parent="1" source="7dQRJvgrKI5619l0tNyw-4" target="7dQRJvgrKI5619l0tNyw-13">
          <mxGeometry width="50" height="50" relative="1" as="geometry">
            <mxPoint x="270" y="400" as="sourcePoint" />
            <mxPoint x="330" y="470" as="targetPoint" />
          </mxGeometry>
        </mxCell>
        <mxCell id="7dQRJvgrKI5619l0tNyw-15" value="&lt;div style=&quot;&quot;&gt;&lt;h6 style=&quot;font-size: 11px;&quot;&gt;&lt;ul&gt;&lt;li&gt;msg::PointCloud2 cluster&lt;/li&gt;&lt;li&gt;msg::RegioinOfInterest roi&lt;/li&gt;&lt;/ul&gt;&lt;/h6&gt;&lt;/div&gt;" style="text;html=1;strokeColor=#666666;fillColor=#f5f5f5;align=left;verticalAlign=middle;whiteSpace=wrap;rounded=0;fontColor=#333333;" vertex="1" parent="1">
          <mxGeometry x="400" y="445.75" width="200" height="67.5" as="geometry" />
        </mxCell>
        <mxCell id="7dQRJvgrKI5619l0tNyw-18" value="" style="endArrow=none;html=1;rounded=0;exitX=1;exitY=0.5;exitDx=0;exitDy=0;" edge="1" parent="1" source="7dQRJvgrKI5619l0tNyw-13" target="7dQRJvgrKI5619l0tNyw-15">
          <mxGeometry width="50" height="50" relative="1" as="geometry">
            <mxPoint x="390" y="451.5" as="sourcePoint" />
            <mxPoint x="470" y="451.5" as="targetPoint" />
          </mxGeometry>
        </mxCell>
        <mxCell id="7dQRJvgrKI5619l0tNyw-19" value="&lt;div style=&quot;&quot;&gt;&lt;h6 style=&quot;font-size: 11px;&quot;&gt;&lt;div&gt;&lt;ul&gt;&lt;li&gt;height&lt;/li&gt;&lt;li&gt;width&lt;/li&gt;&lt;li&gt;msg::pointField&lt;/li&gt;&lt;li&gt;data 등&lt;/li&gt;&lt;/ul&gt;&lt;/div&gt;&lt;/h6&gt;&lt;/div&gt;" style="text;html=1;strokeColor=#666666;fillColor=#f5f5f5;align=left;verticalAlign=middle;whiteSpace=wrap;rounded=0;fontColor=#333333;" vertex="1" parent="1">
          <mxGeometry x="400" y="146.25" width="200" height="67.5" as="geometry" />
        </mxCell>
      </root>
    </mxGraphModel>
  </diagram>
</mxfile>
